<svg xmlns="http://www.w3.org/2000/svg" viewBox="0 0 24 24" width="24" height="24">
  <title>slider.horizontal.3</title>
  <path transform="matrix(0.8469809760132341, 0, 0, 0.8469809760132341, -0.531017369727047, 19.146401985111662)" d="M3.93-14.65L15.09-14.65C15.45-13.55 16.43-12.83 17.71-12.83L19.96-12.83C21.23-12.83 22.22-13.55 22.57-14.65L25.70-14.65C26.18-14.65 26.60-15.07 26.60-15.60C26.60-16.13 26.18-16.54 25.70-16.54L22.57-16.54C22.22-17.64 21.23-18.35 19.96-18.35L17.71-18.35C16.43-18.35 15.45-17.64 15.09-16.54L3.93-16.54C3.40-16.54 2.99-16.13 2.99-15.60C2.99-15.07 3.40-14.65 3.93-14.65ZM17.71-14.25C16.91-14.25 16.37-14.80 16.37-15.60C16.37-16.38 16.91-16.93 17.71-16.93L19.96-16.93C20.74-16.93 21.29-16.38 21.29-15.60C21.29-14.80 20.74-14.25 19.96-14.25ZM3.88-7.50L7.02-7.50C7.37-6.40 8.36-5.68 9.63-5.68L11.88-5.68C13.16-5.68 14.13-6.40 14.50-7.50L25.65-7.50C26.18-7.50 26.60-7.91 26.60-8.44C26.60-8.96 26.18-9.39 25.65-9.39L14.50-9.39C14.14-10.49 13.16-11.20 11.88-11.20L9.63-11.20C8.36-11.20 7.37-10.49 7.02-9.39L3.88-9.39C3.40-9.39 2.99-8.96 2.99-8.44C2.99-7.91 3.40-7.50 3.88-7.50ZM9.63-7.10C8.84-7.10 8.29-7.65 8.29-8.44C8.29-9.23 8.84-9.79 9.63-9.79L11.88-9.79C12.67-9.79 13.22-9.23 13.22-8.44C13.22-7.65 12.67-7.10 11.88-7.10ZM3.93-0.34L15.09-0.34C15.45 0.76 16.43 1.48 17.71 1.48L19.96 1.48C21.23 1.48 22.22 0.76 22.57-0.34L25.70-0.34C26.18-0.34 26.60-0.75 26.60-1.28C26.60-1.80 26.18-2.23 25.70-2.23L22.57-2.23C22.22-3.33 21.23-4.04 19.96-4.04L17.71-4.04C16.43-4.04 15.45-3.33 15.09-2.23L3.93-2.23C3.40-2.23 2.99-1.80 2.99-1.28C2.99-0.75 3.40-0.34 3.93-0.34ZM17.71 0.06C16.91 0.06 16.37-0.49 16.37-1.28C16.37-2.07 16.91-2.63 17.71-2.63L19.96-2.63C20.74-2.63 21.29-2.07 21.29-1.28C21.29-0.49 20.74 0.06 19.96 0.06Z" fill="currentColor"/>
</svg>